<svg width="20" height="19" viewBox="0 0 20 19" fill="none" xmlns="http://www.w3.org/2000/svg">
<path d="M19.4156 8.29713H18.0519H3.83117V1.9662C3.83117 1.53754 4.15584 1.2078 4.57792 1.2078H7.07792V2.16404C6.3961 2.26296 5.84416 2.85648 5.84416 3.5819V5.03274C5.84416 5.36248 6.1039 5.62627 6.42857 5.62627H8.73377C9.05844 5.62627 9.31818 5.36248 9.31818 5.03274V3.5819C9.31818 2.92243 8.86364 2.36188 8.24675 2.19701V0.614277C8.24675 0.284541 7.98701 0.020752 7.66234 0.020752H4.57792C3.53896 0.020752 2.69481 0.878066 2.69481 1.93322V8.26416H2.17532H1.94805H0.584416C0.25974 8.26416 0 8.52795 0 8.85768C0 9.18742 0.25974 9.45121 0.584416 9.45121H1.36364V12.0891C1.36364 14.0345 2.79221 15.6502 4.64286 15.914L3.92857 17.5297C3.7987 17.8265 3.92857 18.1562 4.22078 18.2881C4.28571 18.3211 4.38312 18.3541 4.44805 18.3541C4.67532 18.3541 4.87013 18.2222 4.96753 18.0243L5.87662 15.98H14.8052C14.8701 15.98 14.9351 15.98 15.0325 15.98L15.9416 18.0243C16.039 18.2552 16.2338 18.3541 16.461 18.3541C16.526 18.3541 16.6234 18.3541 16.6883 18.2881C16.9805 18.1562 17.1104 17.8265 16.9805 17.5297L16.1688 15.7162C17.5974 15.1556 18.6364 13.7378 18.6364 12.0891V9.45121H19.4156C19.7403 9.45121 20 9.18742 20 8.85768C20 8.56092 19.7403 8.29713 19.4156 8.29713ZM8.14935 4.47219H6.98052V3.5819C6.98052 3.41703 7.11039 3.28514 7.27273 3.28514H7.85714C8.01948 3.28514 8.14935 3.41703 8.14935 3.5819V4.47219ZM17.5 12.0891C17.5 13.5729 16.2987 14.8259 14.8052 14.8259H5.19481C3.73377 14.8259 2.5 13.6059 2.5 12.0891V9.45121H17.5V12.0891Z" fill="#45525B"/>
</svg>
