<svg width="18" height="21" viewBox="0 0 18 21" fill="none" xmlns="http://www.w3.org/2000/svg">
<path d="M17.6544 13.4667C17.6544 13.4343 17.6544 13.4667 17.6544 13.4667C17.6544 13.4343 17.6544 13.4343 17.6544 13.4343L14.9449 7.42776V2.16802C14.9449 1.09659 14.0842 0.1875 13.0005 0.1875H4.96767C3.91576 0.1875 3.02322 1.06412 3.02322 2.16802V7.42776L0.313752 13.4343C0.281876 13.4992 0.25 13.5966 0.25 13.6615V19.6031C0.25 19.9278 0.505009 20.1875 0.82377 20.1875C1.14253 20.1875 1.39754 19.9278 1.39754 19.6031V17.8823H16.6025V19.6031C16.6025 19.9278 16.8575 20.1875 17.1762 20.1875C17.495 20.1875 17.75 19.9278 17.75 19.6031V13.6615C17.6862 13.5966 17.6862 13.5317 17.6544 13.4667ZM3.94763 8.10958H13.9886L16.2518 13.1096H1.7163L3.94763 8.10958ZM4.17076 2.16802C4.17076 1.71347 4.5214 1.32386 4.99954 1.32386H13.0005C13.4467 1.32386 13.8292 1.68101 13.8292 2.16802V6.97321H4.17076V2.16802ZM1.39754 16.7459V14.2459H16.6025V16.7459H1.39754Z" fill="#45525B"/>
</svg>
